<svg width="359" height="359" viewBox="0 0 359 359" fill="none" xmlns="http://www.w3.org/2000/svg">
<path d="M216.018 180.613C207.301 194.822 232.453 216.735 216.944 248.823C201.902 279.934 153.042 286.511 119.49 269.429C78.4488 248.529 49.1257 198.067 64.8212 169.735C81.2418 140.096 123.396 138.007 139.378 123.518C155.957 108.49 140.01 70.723 177.432 43.9344C206.734 22.9473 246.705 27.8009 289.44 66.6807C316.638 91.4373 332.018 125.327 295.536 156.222C268.152 179.378 225.711 164.824 216.018 180.613Z" fill="#FF9766"/>
<path opacity="0.9" d="M216.018 180.613C207.301 194.822 232.453 216.735 216.944 248.823C201.902 279.934 153.042 286.511 119.49 269.429C78.4488 248.529 49.1257 198.067 64.8212 169.735C81.2418 140.096 123.396 138.007 139.378 123.518C155.957 108.49 140.01 70.723 177.432 43.9344C206.734 22.9473 246.705 27.8009 289.44 66.6807C316.638 91.4373 332.018 125.327 295.536 156.222C268.152 179.378 225.711 164.824 216.018 180.613Z" fill="white"/>
<path d="M176.039 304.224C252.924 304.224 315.252 300.585 315.252 296.096C315.252 291.607 252.924 287.968 176.039 287.968C99.154 287.968 36.8262 291.607 36.8262 296.096C36.8262 300.585 99.154 304.224 176.039 304.224Z" fill="#F5F5F5"/>
<path d="M291.781 170.08V205.176H280.422V170.08C280.422 118.484 235.404 76.5101 180.067 76.5101C124.731 76.5101 79.6981 118.47 79.6981 170.08H68.3394C68.3394 112.64 118.463 65.9268 180.067 65.9268C240.638 65.9268 290.108 111.103 291.738 167.222C291.767 168.17 291.781 169.125 291.781 170.08Z" fill="#FF9766"/>
<g opacity="0.5">
<path opacity="0.5" d="M291.781 170.08V205.176H280.422V170.08C280.422 118.484 235.404 76.5101 180.067 76.5101C124.731 76.5101 79.6981 118.47 79.6981 170.08H68.3394C68.3394 112.64 118.463 65.9268 180.067 65.9268C240.638 65.9268 290.108 111.103 291.738 167.222C291.767 168.17 291.781 169.125 291.781 170.08Z" fill="white"/>
</g>
<path d="M303.413 170.08V205.176H292.061V170.08C292.061 112.511 241.801 65.6755 180.053 65.6755C118.305 65.6755 68.045 112.511 68.045 170.08H56.7222C56.7222 106.673 112.058 55.0922 180.075 55.0922C247.057 55.0922 301.754 105.13 303.377 167.222C303.398 168.17 303.413 169.125 303.413 170.08Z" fill="#FF9766"/>
<g opacity="0.6">
<path opacity="0.6" d="M303.413 170.08V205.176H292.061V170.08C292.061 112.511 241.801 65.6755 180.053 65.6755C118.305 65.6755 68.045 112.511 68.045 170.08H56.7222C56.7222 106.673 112.058 55.0922 180.075 55.0922C247.057 55.0922 301.754 105.13 303.377 167.222C303.398 168.17 303.413 169.125 303.413 170.08Z" fill="white"/>
</g>
<path d="M280.157 170.08V205.176H268.798V170.08C268.798 124.465 228.985 87.3591 180.06 87.3591C131.136 87.3591 91.3154 124.465 91.3154 170.08H79.9639C79.9639 118.628 124.868 76.7399 180.067 76.7399C234.233 76.7399 278.491 117.063 280.106 167.208C280.142 168.177 280.157 169.125 280.157 170.08Z" fill="#FF9766"/>
<g opacity="0.4">
<path opacity="0.4" d="M280.157 170.08V205.176H268.798V170.08C268.798 124.465 228.985 87.3591 180.06 87.3591C131.136 87.3591 91.3154 124.465 91.3154 170.08H79.9639C79.9639 118.628 124.868 76.7399 180.067 76.7399C234.233 76.7399 278.491 117.063 280.106 167.208C280.142 168.177 280.157 169.125 280.157 170.08Z" fill="white"/>
</g>
<path d="M268.532 170.08V205.176H257.18V170.08C257.18 130.439 222.587 98.1937 180.067 98.1937C137.547 98.1937 102.954 130.439 102.954 170.08H91.5952C91.5952 124.602 131.286 87.6104 180.067 87.6104C227.821 87.6104 266.859 123.065 268.482 167.229C268.532 168.177 268.532 169.125 268.532 170.08Z" fill="#FF9766"/>
<g opacity="0.3">
<path opacity="0.3" d="M268.532 170.08V205.176H257.18V170.08C257.18 130.439 222.587 98.1937 180.067 98.1937C137.547 98.1937 102.954 130.439 102.954 170.08H91.5952C91.5952 124.602 131.286 87.6104 180.067 87.6104C227.821 87.6104 266.859 123.065 268.482 167.229C268.532 168.177 268.532 169.125 268.532 170.08Z" fill="white"/>
</g>
<path d="M256.908 170.08V205.176H245.556V170.08C245.556 136.413 216.175 109.05 180.067 109.05C143.959 109.05 114.578 136.434 114.578 170.08H103.22C103.22 130.59 137.684 98.445 180.046 98.445C221.388 98.445 255.213 129.039 256.821 167.229C256.886 168.177 256.908 169.125 256.908 170.08Z" fill="#FF9766"/>
<g opacity="0.2">
<path opacity="0.2" d="M256.908 170.08V205.176H245.556V170.08C245.556 136.413 216.175 109.05 180.067 109.05C143.959 109.05 114.578 136.434 114.578 170.08H103.22C103.22 130.59 137.684 98.445 180.046 98.445C221.388 98.445 255.213 129.039 256.821 167.229C256.886 168.177 256.908 169.125 256.908 170.08Z" fill="white"/>
</g>
<path d="M245.284 170.08V205.176H233.932V170.08C233.932 142.387 209.764 119.863 180.082 119.863C150.4 119.863 126.232 142.387 126.232 170.08H114.88C114.88 136.556 144.139 109.28 180.103 109.28C215.041 109.28 243.647 135.027 245.248 167.237C245.262 168.177 245.284 169.125 245.284 170.08Z" fill="#FF9766"/>
<g opacity="0.1">
<path opacity="0.1" d="M245.284 170.08V205.176H233.932V170.08C233.932 142.387 209.764 119.863 180.082 119.863C150.4 119.863 126.232 142.387 126.232 170.08H114.88C114.88 136.556 144.139 109.28 180.103 109.28C215.041 109.28 243.647 135.027 245.248 167.237C245.262 168.177 245.284 169.125 245.284 170.08Z" fill="white"/>
</g>
<path d="M233.695 170.08V205.176H222.336V170.08C222.336 148.368 203.388 130.705 180.096 130.705C156.804 130.705 137.856 148.368 137.856 170.08H126.504C126.504 142.53 150.543 120.114 180.096 120.114C208.622 120.114 232.022 141.001 233.601 167.237C233.666 168.177 233.695 169.125 233.695 170.08Z" fill="#FF9766"/>
<path d="M224.66 185.261C229.579 159.884 212.996 135.325 187.62 130.405C162.244 125.485 137.684 142.068 132.764 167.444C127.844 192.82 144.427 217.38 169.804 222.3C195.18 227.22 219.74 210.637 224.66 185.261Z" fill="#FF9766"/>
<path d="M224.66 185.261C229.579 159.884 212.996 135.325 187.62 130.405C162.244 125.485 137.684 142.068 132.764 167.444C127.844 192.82 144.427 217.38 169.804 222.3C195.18 227.22 219.74 210.637 224.66 185.261Z" fill="#FF9766"/>
<path opacity="0.5" d="M224.66 185.261C229.579 159.884 212.996 135.325 187.62 130.405C162.244 125.485 137.684 142.068 132.764 167.444C127.844 192.82 144.427 217.38 169.804 222.3C195.18 227.22 219.74 210.637 224.66 185.261Z" fill="white"/>
<g opacity="0.6">
<path opacity="0.6" d="M185.172 132.342L191.081 135.889V141.532C191.081 141.532 186.601 140.922 185.172 138.474C185.172 138.474 186.393 137.957 182.932 135.889C179.471 133.821 180.283 131.308 185.172 132.342Z" fill="white"/>
<path opacity="0.6" d="M181.913 177.202L178.509 178.839C178.509 178.839 177.497 180.807 177.698 180.735C177.899 180.663 176.98 184.813 177.152 184.885C177.325 184.957 175.185 186.716 175.185 186.716L174.166 189.229V192.151L179.077 198.814L182.667 200.853L179.5 217.978L180.793 218.452L197.106 206.49L198.19 203.567L203.015 201.665L205.592 194.937L208.515 191.541C208.515 191.541 208.787 188.145 208.515 188.209C208.242 188.274 206.957 188.755 206.957 188.755L204.508 186.924C204.508 186.924 199.346 185.969 199.073 186.242C198.8 186.515 197.989 183.083 197.989 183.083L193.228 181.755L188.267 178.495L184.677 179.213L181.913 177.202Z" fill="white"/>
<path opacity="0.6" d="M172.658 168.795H175.286L179.019 170.755L185.998 172.5L186.328 173.06L179.414 172.952L180.692 172.148L179.665 171.494L176.88 171.43L177.224 171.092L174.352 169.613C174.352 169.613 172.55 169.19 172.478 169.391L171.76 169.484L172.658 168.795Z" fill="white"/>
<path opacity="0.6" d="M178.064 173.06L177.425 172.442L176.384 172.492L176.815 173.06H178.064Z" fill="white"/>
<path opacity="0.6" d="M194.578 132.342H193.76L199.568 135.824L200.487 136.815L206.196 140.103L207.316 141.539L208.235 144.699L211.293 147.147L209.857 148.167L213.117 152.245H214.244L214.646 150.608L212.205 145.517L215.594 147.413C215.594 147.413 208.306 136.097 194.578 132.342Z" fill="white"/>
<path opacity="0.6" d="M218.452 151.11H217.554L216.118 149.179L214.546 153.487C214.546 153.487 215.515 158.513 215.594 158.786C215.673 159.059 215.156 159.805 215.156 159.805L215.594 165.312L216.721 167.244L217.59 171.932L221.431 177.231L224.533 172.78L225.043 173.871C224.988 165.821 222.707 157.944 218.452 151.11V151.11Z" fill="white"/>
<path opacity="0.6" d="M195.569 136.815H194.55V138.064L195.569 138.682H196.488V137.748L195.569 136.815Z" fill="white"/>
<path opacity="0.6" d="M201.787 139.292L203.316 140.922L203.726 142.286L205.248 143.772L205.865 142.86L206.985 143.772V142.753L206.167 141.532L201.787 139.292Z" fill="white"/>
<path opacity="0.6" d="M191.082 150.063C191.082 150.063 183.952 152.713 181.295 154.371C178.639 156.03 179.077 159.483 179.077 159.483L174.769 161.91L175.788 166.599L174.769 167.209L173.139 163.339C173.139 163.339 167.395 162.521 165.047 162.93C162.699 163.339 162.132 168.028 162.132 168.028L163.568 171.898L166.835 172.106L167.244 169.859L170.705 170.067L168.465 174.375L172.543 174.985L172.938 177.994L177.023 181.102C177.023 181.102 177.842 182.122 177.023 182.538C176.205 182.955 156.847 171.33 155.009 168.48C153.171 165.63 150.831 157.775 152.661 152.275C154.155 147.802 156.919 143.659 157.802 140.959C157.805 140.928 157.805 140.897 157.802 140.866V140.866C157.829 140.793 157.851 140.719 157.867 140.643C157.952 140.222 157.868 139.784 157.633 139.423C157.398 139.063 157.031 138.81 156.61 138.719C155.892 138.511 154.571 139.329 154.571 139.329H151.972L154.672 137.786L155.806 136.565L156.524 135.926L159.174 134.806L159.073 133.994C160.617 133.058 162.321 132.418 164.099 132.106L162.161 133.585H164.2L164.602 135.89H168.68C168.68 135.89 167.66 135.624 170.116 134.274C172.572 132.925 180.513 132.343 180.513 132.343L178.064 135.89L183.363 138.884L182.753 141.124L179.105 140.105V138.884L176.844 137.513L176.643 139.904L175.824 140.923L174.805 140.105L171.933 142.977L177.045 147.96L177.863 141.548L185.201 143.178L191.082 150.063Z" fill="white"/>
</g>
<path d="M207.315 207.129C206.991 209.128 207.106 211.173 207.652 213.123C208.199 215.073 209.164 216.881 210.48 218.42C211.797 219.959 213.433 221.193 215.274 222.035C217.116 222.878 219.119 223.309 221.144 223.298H241.585C242.811 223.351 243.995 223.763 244.989 224.483C258.588 236.617 267.247 229.839 270.693 225.71C271.349 224.926 272.173 224.299 273.104 223.875C274.035 223.451 275.049 223.242 276.071 223.262H309.515C322.066 223.262 316.99 189.351 303.24 183.887L302.716 183.686C310.758 169.089 271.404 138.517 254.833 180.936C252.37 166.806 226.371 171.939 224.562 191.218C219.572 182.674 209.383 194.664 207.315 207.129Z" fill="#FF9766"/>
<g opacity="0.8">
<path opacity="0.8" d="M207.014 209.656C206.887 211.4 207.122 213.151 207.703 214.801C208.283 216.45 209.198 217.962 210.389 219.242C211.58 220.522 213.023 221.543 214.626 222.241C216.229 222.939 217.959 223.299 219.708 223.298H241.549C242.775 223.351 243.959 223.763 244.953 224.483C258.552 236.617 267.211 229.839 270.657 225.71C271.313 224.926 272.137 224.299 273.068 223.875C273.999 223.451 275.013 223.242 276.035 223.262H309.479C322.03 223.262 316.954 189.351 303.204 183.887L302.68 183.686C310.757 169.089 271.404 138.517 254.832 180.936C252.37 166.806 226.371 171.939 224.562 191.218C219.234 182.106 208.005 196.359 207.014 209.656Z" fill="white"/>
</g>
<path d="M239.008 180.398L250.833 182.178L255.084 190.737L248.062 205.097C248.062 205.097 239.819 203.33 234.865 200.932L239.008 180.398Z" fill="#263238"/>
<path d="M305.394 179.507L304.504 175.35L285.527 176.721L283.811 176.851L282.662 176.937L284.256 183.119L284.644 183.054L286.812 182.688L305.394 179.507Z" fill="#B25B52"/>
<path d="M301.696 175.709L302.68 180.247C302.696 180.33 302.741 180.404 302.807 180.458C302.872 180.512 302.954 180.541 303.039 180.541H306.909C307.074 180.541 307.233 180.477 307.351 180.361C307.469 180.246 307.537 180.089 307.541 179.924C307.544 179.881 307.544 179.837 307.541 179.794C307.16 178.165 306.758 176.729 306.32 174.689C305.803 172.284 306.22 172.837 305.652 170.001C305.301 168.292 303.305 168.4 303.362 169.139C303.664 172.535 302.737 173.095 301.833 174.625C301.646 174.954 301.597 175.344 301.696 175.709Z" fill="#B25B52"/>
<path opacity="0.2" d="M284.644 183.054L286.812 182.688L286.109 176.678L283.811 176.851L283.761 176.492L280.257 177.095L279.948 177.145L281.499 184.354L282.576 184.275L284.795 184.095L284.644 183.054Z" fill="black"/>
<path d="M256.829 175.831C257.17 177.629 257.17 179.475 256.829 181.273C255.242 181.496 253.878 181.991 252.284 182.221C252.472 180.754 252.906 179.329 253.569 178.007C253.869 177.386 254.329 176.857 254.902 176.475C255.476 176.092 256.141 175.87 256.829 175.831V175.831Z" fill="#FF9766"/>
<path opacity="0.2" d="M256.829 175.831C257.17 177.629 257.17 179.475 256.829 181.273C255.242 181.496 253.878 181.991 252.284 182.221C252.472 180.754 252.906 179.329 253.569 178.007C253.869 177.386 254.329 176.857 254.902 176.475C255.476 176.092 256.141 175.87 256.829 175.831V175.831Z" fill="black"/>
<path d="M252.815 196.804C255.171 195.036 257.677 193.477 260.304 192.144C261.962 191.275 263.894 190.371 265.997 189.487C269.162 188.194 272.419 187.138 275.741 186.328C280.767 184.957 284.795 184.095 284.795 184.095L283.316 175.594C279.619 175.145 275.879 175.191 272.194 175.731C264.482 177.109 251.695 180.319 244.429 183.234L252.815 196.804Z" fill="#263238"/>
<path opacity="0.2" d="M256.398 194.118L264.87 189.968C264.361 189.394 261.086 188.339 259.701 188.532C255.931 189.055 252.23 189.992 248.665 191.325C251.896 193.013 255.027 193.494 256.398 194.118Z" fill="black"/>
<path d="M294.258 223.628L296.197 219.844L280.616 208.917L279.216 207.933L278.268 207.272L275.597 213.074L275.942 213.268L277.852 214.352L294.258 223.628Z" fill="#B25B52"/>
<path d="M293.77 218.444L290.072 221.259C290.003 221.309 289.954 221.382 289.933 221.464C289.912 221.547 289.921 221.634 289.957 221.711L291.573 225.222C291.606 225.297 291.654 225.365 291.714 225.421C291.773 225.477 291.844 225.521 291.921 225.55C291.998 225.579 292.079 225.592 292.161 225.589C292.243 225.585 292.324 225.566 292.398 225.531C292.439 225.515 292.478 225.493 292.513 225.466C293.827 224.432 294.954 223.456 296.613 222.199C298.573 220.713 298.257 221.323 300.584 219.607C301.984 218.574 301.036 216.8 300.39 217.173C297.439 218.875 296.541 218.279 294.775 218.107C294.41 218.093 294.052 218.213 293.77 218.444V218.444Z" fill="#B25B52"/>
<path opacity="0.2" d="M272.775 212.112C274.671 212.83 275.935 213.268 275.935 213.268L277.844 214.352L281.097 209.247L279.209 207.926C279.209 207.926 278.405 207.279 277.55 206.576L276.308 205.858L276.028 205.7L272.775 212.112Z" fill="black"/>
<path d="M247.351 189.006L241.607 203.366H241.707C245.021 204.402 248.425 205.123 251.874 205.52C254.854 205.872 258.336 206.332 266.701 209.577C268.934 210.568 271.088 211.43 272.761 212.061C274.657 212.779 275.92 213.217 275.92 213.217L279.194 207.875C279.194 207.875 278.39 207.229 277.536 206.526C277.076 206.152 276.602 205.757 276.229 205.434C270.956 201.045 265.219 197.245 259.119 194.104C254.423 191.706 251.602 190.335 247.351 189.006Z" fill="#263238"/>
<path d="M238.958 202.555C238.958 202.555 223.944 197.644 225.316 188.647L232.086 183.722C235.375 181.568 235.827 181.295 238.326 178.136C238.326 178.136 245.025 181.309 247.918 181.726C250.812 182.142 238.958 202.555 238.958 202.555Z" fill="#263238"/>
<path d="M225.991 157.565L227.046 157.651L228.195 157.702C228.963 157.737 229.739 157.737 230.507 157.702C232.043 157.674 233.575 157.549 235.095 157.328C236.571 157.097 238.026 156.746 239.446 156.28C240.806 155.826 242.105 155.209 243.316 154.442L242.332 155.655C242.882 154.312 243.362 152.941 243.768 151.548C244.221 150.062 244.666 148.576 245.089 147.075L246.375 142.566C246.813 141.073 247.229 139.558 247.703 138.036C247.814 137.673 248.055 137.365 248.379 137.169C248.703 136.972 249.088 136.902 249.46 136.971C249.833 137.04 250.167 137.244 250.399 137.544C250.631 137.843 250.745 138.218 250.719 138.596C250.618 140.19 250.439 141.762 250.281 143.349C250.123 144.935 249.871 146.508 249.642 148.088C249.412 149.667 249.132 151.24 248.801 152.826C248.486 154.498 248.056 156.146 247.516 157.759C247.359 158.205 247.075 158.594 246.698 158.879L246.547 158.987C244.996 160.151 243.293 161.098 241.485 161.801C239.748 162.498 237.943 163.013 236.1 163.338C234.298 163.67 232.474 163.867 230.643 163.927C229.71 163.927 228.834 163.927 227.893 163.927C227.441 163.927 226.996 163.927 226.522 163.848C226.048 163.769 225.66 163.776 225.086 163.69C224.282 163.579 223.554 163.157 223.057 162.516C222.561 161.874 222.335 161.064 222.429 160.258C222.523 159.452 222.929 158.715 223.56 158.205C224.191 157.695 224.996 157.452 225.804 157.529L225.991 157.565Z" fill="#B25B52"/>
<path d="M247.43 141.144L245.721 137.231L251.3 135.702C251.3 135.702 252.521 138.825 250.525 141.317L247.43 141.144Z" fill="#B25B52"/>
<path d="M247.854 133.002H249.333C249.757 133.003 250.167 133.155 250.49 133.429C250.814 133.704 251.029 134.084 251.099 134.503L251.3 135.702L245.714 137.246L246.051 134.546C246.112 134.113 246.329 133.718 246.661 133.434C246.993 133.15 247.417 132.996 247.854 133.002V133.002Z" fill="#B25B52"/>
<path d="M215.307 160.832C215.704 166.598 217.015 172.264 219.191 177.619C220.994 182.037 222.545 186.553 223.836 191.146C223.836 191.146 239.812 191.706 244.12 179.335L238.376 167.265C237.866 164.052 236.576 161.013 234.621 158.412L233.458 156.876L215.307 160.832Z" fill="#FFAF89"/>
<path d="M219.873 155.935C219.699 155.391 219.692 154.807 219.851 154.258C220.011 153.709 220.331 153.221 220.77 152.855C220.921 152.934 221.115 153.114 221.266 153.193C220.594 153.986 220.117 154.925 219.873 155.935V155.935Z" fill="#263238"/>
<path d="M213.871 140.01C213.374 141.229 213.142 142.539 213.187 143.855C213.233 145.17 213.557 146.461 214.136 147.642C215.333 150.006 217.266 151.916 219.643 153.085C220.067 153.3 221.417 153.652 221.841 153.422C222.264 153.192 221.525 152.618 221.489 152.202C221.423 151.793 221.292 151.398 221.101 151.031C219.584 147.627 219.25 143.813 220.153 140.197C220.505 138.761 221.589 135.235 218.99 135.659C216.75 136.011 214.754 137.992 213.871 140.01Z" fill="#263238"/>
<path d="M219.765 150.155C221.244 152.417 222.845 158.599 221.531 158.944C220.462 159.231 221.187 160.286 222.135 161.098C223.649 162.119 225.409 162.719 227.232 162.835C227.635 162.89 228.045 162.863 228.437 162.754C228.829 162.645 229.195 162.458 229.512 162.203C229.829 161.949 230.091 161.632 230.282 161.273C230.472 160.914 230.588 160.519 230.621 160.114C230.628 159.778 230.577 159.442 230.471 159.123C230.32 158.477 228.561 157.012 228.474 156.919C228.294 156.752 228.154 156.546 228.065 156.316C227.947 156.016 227.886 155.697 227.886 155.375C227.889 155.347 227.889 155.318 227.886 155.289C227.883 155.008 227.902 154.727 227.943 154.449C227.98 154.07 228.05 153.696 228.151 153.329L223.527 151.591L219.765 150.155Z" fill="#B25B52"/>
<path d="M228.733 137.856C231.497 138.165 231.454 146.544 229.702 144.261C226.364 139.924 225.344 137.475 228.733 137.856Z" fill="#263238"/>
<path d="M230.614 154.456C229.971 154.392 229.378 154.077 228.963 153.58C228.555 153.712 228.125 153.757 227.698 153.714C227.272 153.671 226.859 153.54 226.486 153.329C226.114 153.138 225.786 152.869 225.526 152.541C225.266 152.213 225.079 151.833 224.978 151.426C224.856 150.945 224.978 150.292 225.459 150.198C225.758 149.794 226.163 149.48 226.63 149.293C227.096 149.105 227.606 149.051 228.101 149.136C228.578 149.251 229.012 149.498 229.355 149.848C229.698 150.199 229.935 150.639 230.04 151.118C230.285 150.834 230.605 150.624 230.962 150.513C231.32 150.401 231.702 150.392 232.065 150.486C232.423 150.571 232.75 150.757 233.005 151.024C233.259 151.29 233.432 151.624 233.501 151.986C233.601 152.704 232.417 154.822 230.614 154.456Z" fill="#263238"/>
<path d="M243.402 150.866C243.194 151.232 243.085 151.645 243.086 152.065C242.845 152.071 242.605 152.095 242.368 152.137L240.508 152.446C241.246 152.72 242.005 152.933 242.777 153.085L242.95 153.128C242.784 154.363 242.598 156.251 242.289 156.33C241.657 156.488 238.85 154.894 238.326 154.499C238.251 154.874 238.054 155.214 237.766 155.465C237.477 155.716 237.113 155.864 236.732 155.885C236.322 155.89 235.921 155.768 235.584 155.535C235.247 155.302 234.99 154.97 234.85 154.585C234.745 154.869 234.543 155.106 234.281 155.257C234.019 155.407 233.713 155.462 233.414 155.411C233.118 155.347 232.841 155.213 232.607 155.019C232.373 154.825 232.19 154.578 232.072 154.298C231.915 153.93 231.868 153.525 231.937 153.131C232.006 152.738 232.187 152.372 232.46 152.08C233.738 150.644 235.145 151.311 235.698 151.362C235.844 151.029 236.098 150.756 236.418 150.584C236.738 150.412 237.106 150.352 237.464 150.414C237.85 150.496 238.203 150.693 238.475 150.979C238.748 151.264 238.929 151.625 238.993 152.015C239.51 151.685 243.682 150.299 243.402 150.866Z" fill="#263238"/>
<path opacity="0.2" d="M221.288 152.597C221.288 152.668 221.288 152.74 221.288 152.826C221.312 153.034 221.372 153.236 221.467 153.422C222.113 154.779 224.339 156.208 225.359 156.761C225.645 156.96 225.973 157.092 226.317 157.145C226.662 157.199 227.014 157.173 227.348 157.07C227.676 156.904 227.932 156.623 228.066 156.28C227.948 155.98 227.887 155.661 227.886 155.339C227.889 155.311 227.889 155.282 227.886 155.253C227.883 154.972 227.903 154.691 227.943 154.413C227.771 154.073 227.682 153.696 227.685 153.315C227.089 152.733 226.141 152.762 225.316 152.704C224.49 152.647 221.381 151.082 221.288 152.597Z" fill="black"/>
<path d="M223.829 137.483C228.899 137.483 232.051 143.6 232.654 147.815C232.797 148.932 232.646 150.068 232.216 151.109C231.785 152.15 231.09 153.061 230.198 153.75C229.307 154.44 228.251 154.884 227.135 155.039C226.019 155.195 224.882 155.056 223.837 154.636C220.692 153.322 219.744 150.773 217.748 146.601C215.752 142.43 218.768 137.483 223.829 137.483Z" fill="#B25B52"/>
<path d="M218.588 147.506C219.114 147.665 219.567 148.006 219.866 148.468C220.318 149.186 219.83 147.032 219.485 146.888C219.141 146.745 218.365 147.19 218.588 147.506Z" fill="#263238"/>
<path d="M225.761 144.253C226.005 144.189 226.306 144.426 226.414 144.806C226.522 145.187 226.414 145.524 226.184 145.596C225.954 145.668 225.646 145.417 225.531 145.043C225.416 144.67 225.516 144.318 225.761 144.253Z" fill="#263238"/>
<path d="M225.761 144.253C225.761 144.253 226.005 144.519 226.17 144.469C226.594 144.34 226.658 143.751 226.658 143.751C226.523 143.876 226.379 143.991 226.227 144.095C226.08 144.169 225.923 144.222 225.761 144.253V144.253Z" fill="#263238"/>
<path d="M229.99 143.09C230.234 143.026 230.528 143.263 230.643 143.643C230.758 144.024 230.643 144.361 230.406 144.433C230.169 144.505 229.875 144.253 229.753 143.88C229.631 143.507 229.76 143.155 229.99 143.09Z" fill="#263238"/>
<path d="M229.99 143.09C229.99 143.09 230.306 143.334 230.428 143.255C230.498 143.201 230.553 143.13 230.587 143.048C230.621 142.966 230.633 142.877 230.622 142.789C230.549 142.877 230.462 142.953 230.363 143.011C230.24 143.044 230.116 143.071 229.99 143.09V143.09Z" fill="#263238"/>
<path d="M229.228 147.578C229.504 147.592 229.779 147.544 230.033 147.439C230.288 147.333 230.516 147.172 230.7 146.967C229.86 146.261 229.118 145.445 228.496 144.541L229.228 147.578Z" fill="#9D2724"/>
<path d="M224.482 143.83C224.868 143.164 225.475 142.656 226.198 142.394C226.257 142.382 226.309 142.347 226.342 142.297C226.376 142.248 226.389 142.187 226.378 142.128C226.373 142.099 226.362 142.07 226.346 142.045C226.329 142.02 226.308 141.999 226.283 141.982C226.258 141.965 226.231 141.954 226.201 141.948C226.172 141.942 226.142 141.942 226.112 141.949C225.232 142.241 224.497 142.861 224.059 143.679C224.047 143.707 224.041 143.738 224.042 143.768C224.042 143.799 224.048 143.829 224.06 143.857C224.072 143.885 224.09 143.91 224.112 143.932C224.134 143.953 224.16 143.969 224.188 143.981C224.224 143.988 224.26 143.988 224.296 143.981C224.338 143.975 224.377 143.958 224.41 143.931C224.443 143.905 224.468 143.87 224.482 143.83V143.83Z" fill="#263238"/>
<path d="M229.078 141.482C229.358 141.464 229.638 141.514 229.894 141.628C230.15 141.742 230.375 141.916 230.55 142.135V142.135C230.583 142.184 230.634 142.217 230.692 142.228C230.75 142.239 230.81 142.226 230.858 142.193V142.193C230.907 142.158 230.941 142.105 230.952 142.046C230.962 141.987 230.949 141.927 230.916 141.877C230.701 141.589 230.418 141.359 230.092 141.209C229.766 141.058 229.407 140.992 229.049 141.015C228.99 141.021 228.935 141.048 228.895 141.092C228.855 141.136 228.833 141.193 228.834 141.252C228.828 141.288 228.828 141.324 228.834 141.36C228.856 141.404 228.892 141.439 228.936 141.461C228.98 141.483 229.029 141.49 229.078 141.482V141.482Z" fill="#263238"/>
<path d="M216.534 149.559L216.857 149.746L217.468 148.669C217.741 148.191 218.107 147.772 218.543 147.435C218.979 147.099 219.477 146.852 220.009 146.709L222.623 145.991C222.835 146.731 223.333 147.356 224.006 147.729C224.679 148.102 225.473 148.192 226.213 147.98C226.953 147.768 227.578 147.27 227.951 146.597C228.324 145.923 228.414 145.13 228.202 144.39C228.263 144.3 228.355 144.234 228.46 144.205C228.565 144.176 228.677 144.186 228.776 144.232C228.987 144.978 229.479 145.614 230.149 146.005C230.819 146.396 231.614 146.511 232.368 146.327C233.121 146.143 233.774 145.674 234.189 145.018C234.603 144.362 234.747 143.572 234.589 142.812C234.432 142.052 233.987 141.383 233.346 140.946C232.705 140.509 231.92 140.337 231.155 140.467C230.391 140.597 229.706 141.019 229.247 141.643C228.787 142.268 228.587 143.047 228.69 143.815C228.467 143.792 228.244 143.853 228.065 143.988C227.847 143.253 227.346 142.634 226.672 142.269C225.998 141.903 225.207 141.82 224.472 142.038C223.737 142.256 223.118 142.758 222.753 143.431C222.387 144.105 222.304 144.897 222.522 145.632L219.909 146.35C219.329 146.509 218.786 146.781 218.311 147.15C217.837 147.52 217.44 147.98 217.144 148.504L216.534 149.559ZM229.099 144.038C228.967 143.553 228.981 143.04 229.14 142.563C229.299 142.086 229.596 141.667 229.993 141.359C230.39 141.051 230.869 140.868 231.371 140.832C231.872 140.796 232.373 140.91 232.81 141.159C233.246 141.408 233.599 141.781 233.824 142.231C234.049 142.68 234.135 143.186 234.073 143.685C234.01 144.184 233.8 144.653 233.471 145.032C233.142 145.412 232.707 145.686 232.222 145.819C231.9 145.907 231.564 145.931 231.233 145.889C230.902 145.847 230.582 145.741 230.292 145.575C230.002 145.41 229.747 145.189 229.543 144.925C229.338 144.662 229.187 144.36 229.099 144.038ZM222.917 145.754C222.786 145.269 222.801 144.756 222.962 144.28C223.122 143.804 223.419 143.385 223.817 143.078C224.215 142.771 224.694 142.589 225.196 142.554C225.697 142.52 226.197 142.634 226.633 142.884C227.069 143.134 227.422 143.507 227.646 143.957C227.87 144.406 227.955 144.912 227.892 145.411C227.829 145.909 227.619 146.378 227.289 146.757C226.96 147.136 226.525 147.409 226.04 147.542C225.389 147.718 224.695 147.628 224.109 147.293C223.524 146.958 223.095 146.405 222.917 145.754V145.754Z" fill="#FF9766"/>
<path d="M217.848 147.434C219.17 147.305 220.448 148.619 220.835 149.732C221.237 150.981 220.505 152.36 219.184 151.936C218.179 151.605 217.327 150.921 216.786 150.012C216.118 148.892 216.535 147.563 217.848 147.434Z" fill="#B25B52"/>
<path d="M208.615 154.255C209.457 158.609 211.108 162.766 213.483 166.511C213.765 166.91 214.082 167.282 214.431 167.624C215.558 168.909 218.157 168.96 219.457 167.832C220.075 167.29 220.454 166.524 220.509 165.703C220.564 164.882 220.291 164.073 219.751 163.453L219.629 163.352L218.968 162.519L218.25 161.6C217.798 160.983 217.36 160.344 216.936 159.705C215.697 157.468 214.658 155.125 213.835 152.704L208.615 154.255Z" fill="#B25B52"/>
<path d="M209.778 134.187L210.733 130.015L204.953 129.542C204.953 129.542 204.336 132.837 206.762 134.912L209.778 134.187Z" fill="#B25B52"/>
<path d="M207.846 126.268L206.41 126.54C205.997 126.624 205.627 126.851 205.364 127.181C205.102 127.51 204.963 127.921 204.974 128.343V129.542L210.754 130.015L209.921 127.431C209.778 127.016 209.487 126.668 209.105 126.454C208.722 126.239 208.274 126.173 207.846 126.268Z" fill="#B25B52"/>
<path d="M214.072 153.652L209.606 133.964L206.231 134.345L208.73 155.224C208.73 155.224 212.88 157.888 214.072 153.652Z" fill="#B25B52"/>
<path d="M217.051 160.538C219.048 161.256 220.168 161.808 220.807 163.826C221.446 165.844 221.008 171.423 219.801 173.16C217.963 173.124 216.7 170.626 215.4 169.333C214.08 168.021 213.309 166.254 213.246 164.393C213.246 162.469 215.242 159.87 217.051 160.538Z" fill="#B25B52"/>
<path d="M223.801 189.925C221.421 192.899 218.888 195.746 216.211 198.455C219.845 202.699 221.625 201.851 224.038 201.586C225.524 201.421 227.764 201.083 229.214 201.421C230.898 201.981 232.421 202.942 233.652 204.221C234.039 204.753 234.619 205.113 235.267 205.226C235.777 205.301 236.297 205.257 236.788 205.099C237.278 204.941 237.726 204.672 238.096 204.314C238.505 203.905 238.864 203.46 239.295 203.079C241.241 201.342 244.005 203.74 245.456 203.079C246.906 202.419 248.78 201.176 248.737 199.575C248.771 198.485 249.174 197.438 249.881 196.607C250.588 195.776 251.557 195.21 252.628 195.002C253.337 194.877 253.989 194.533 254.492 194.017C254.994 193.502 255.322 192.842 255.429 192.13C255.666 189.925 254.416 187.771 255.127 185.524C255.352 184.935 255.738 184.42 256.24 184.038C257.238 183.198 257.252 181.683 256.879 180.448C256.506 179.213 255.852 178.136 255.637 176.894C255.421 175.652 255.436 173.871 256.613 173.419C252.671 174.33 243.639 178.294 243.639 178.294C233.049 188.626 223.801 189.925 223.801 189.925Z" fill="#FF9766"/>
<g opacity="0.1">
<path opacity="0.1" d="M223.801 189.925C221.421 192.899 218.888 195.746 216.211 198.455C219.845 202.699 221.625 201.851 224.038 201.586C225.524 201.421 227.764 201.083 229.214 201.421C230.898 201.981 232.421 202.942 233.652 204.221C234.039 204.753 234.619 205.113 235.267 205.226C235.777 205.301 236.297 205.257 236.788 205.099C237.278 204.941 237.726 204.672 238.096 204.314C238.505 203.905 238.864 203.46 239.295 203.079C241.241 201.342 244.005 203.74 245.456 203.079C246.906 202.419 248.78 201.176 248.737 199.575C248.771 198.485 249.174 197.438 249.881 196.607C250.588 195.776 251.557 195.21 252.628 195.002C253.337 194.877 253.989 194.533 254.492 194.017C254.994 193.502 255.322 192.842 255.429 192.13C255.666 189.925 254.416 187.771 255.127 185.524C255.352 184.935 255.738 184.42 256.24 184.038C257.238 183.198 257.252 181.683 256.879 180.448C256.506 179.213 255.852 178.136 255.637 176.894C255.421 175.652 255.436 173.871 256.613 173.419C252.671 174.33 243.639 178.294 243.639 178.294C233.049 188.626 223.801 189.925 223.801 189.925Z" fill="black"/>
</g>
<path d="M219.801 137.648C220.203 137.807 220.552 138.074 220.81 138.42C221.068 138.766 221.225 139.176 221.263 139.606C221.301 140.036 221.219 140.468 221.025 140.854C220.832 141.24 220.535 141.564 220.167 141.791C220.422 141.892 220.627 142.087 220.742 142.335C220.857 142.584 220.872 142.867 220.785 143.126C220.523 143.561 220.138 143.908 219.679 144.124C220.117 144.778 219.959 145.984 219.227 146.278C219.471 146.386 219.744 146.465 219.679 146.731C219.643 146.861 219.565 146.976 219.458 147.057C219.35 147.139 219.218 147.183 219.083 147.183C218.832 147.183 216.865 148.253 215.989 148.619C214.883 146.43 214.667 143.898 215.386 141.554C215.769 140.606 216.368 139.759 217.134 139.081C217.9 138.404 218.813 137.913 219.801 137.648V137.648Z" fill="#263238"/>
<path d="M219.708 139.565C218.864 138.878 218.226 137.972 217.863 136.946C217.501 135.92 217.429 134.814 217.654 133.749C217.709 133.433 217.823 133.131 217.992 132.859C218.078 132.722 218.194 132.607 218.33 132.521C218.467 132.435 218.621 132.381 218.782 132.363C219.378 132.363 219.808 132.895 220.132 133.397L221.453 135.487C221.561 135.274 221.618 135.039 221.618 134.801C221.618 134.563 221.561 134.328 221.453 134.115C221.246 133.687 221.09 133.237 220.986 132.773C220.94 132.538 220.975 132.295 221.086 132.084C221.197 131.872 221.377 131.705 221.596 131.609C221.887 131.557 222.187 131.608 222.444 131.753C223.198 132.113 223.819 132.704 224.217 133.44C224.274 133.074 224.217 132.722 224.217 132.335C224.21 132.151 224.254 131.968 224.346 131.808C224.437 131.648 224.572 131.517 224.734 131.43C224.879 131.391 225.03 131.382 225.178 131.404C225.327 131.426 225.469 131.479 225.596 131.559C226.232 131.894 226.767 132.393 227.145 133.004C227.524 133.615 227.733 134.316 227.75 135.034C227.63 134.712 227.63 134.358 227.75 134.036C227.799 133.872 227.898 133.726 228.033 133.62C228.168 133.513 228.332 133.451 228.503 133.44C229.157 133.44 229.624 134.259 229.717 134.446C229.932 134.863 230.057 135.321 230.085 135.79C230.113 136.259 230.044 136.729 229.88 137.169C229.717 137.61 229.463 138.011 229.136 138.348C228.809 138.685 228.415 138.951 227.979 139.127C225.452 140.168 222.379 138.818 219.708 139.565Z" fill="#263238"/>
<path d="M229.157 149.48C229.397 149.481 229.637 149.461 229.875 149.423C229.91 149.418 229.941 149.399 229.963 149.371C229.984 149.343 229.994 149.307 229.99 149.272V149.272C229.981 149.237 229.959 149.206 229.928 149.186C229.898 149.166 229.86 149.158 229.824 149.165C229.253 149.268 228.666 149.235 228.109 149.069C227.553 148.904 227.043 148.609 226.622 148.21C226.609 148.197 226.594 148.187 226.578 148.18C226.561 148.173 226.543 148.169 226.525 148.169C226.507 148.169 226.489 148.173 226.473 148.18C226.456 148.187 226.441 148.197 226.428 148.21C226.404 148.236 226.391 148.271 226.391 148.307C226.391 148.342 226.404 148.377 226.428 148.403C227.159 149.11 228.14 149.497 229.157 149.48Z" fill="#263238"/>
<path d="M42.7209 175.91L60.7571 176.054L63.1839 177.08C76.6967 182.939 91.0782 182.674 102.293 176.362L118.606 176.492C122.488 176.547 126.314 175.562 129.685 173.637C133.057 171.713 135.851 168.92 137.777 165.549C140.405 160.868 141.762 154.528 139.364 146.221C132.959 124.07 103.241 142.243 103.241 142.243C103.241 142.243 108.138 111.455 77.8814 119.985C47.6249 128.515 53.1319 155.404 53.1319 155.404C53.1319 155.404 38.9155 151.577 33.8465 160.329C29.8616 167.165 34.9737 175.809 42.7209 175.91Z" fill="#FF9766"/>
<path opacity="0.8" d="M42.7209 175.91L60.7571 176.054L63.1839 177.08C76.6967 182.939 91.0782 182.674 102.293 176.362L118.606 176.492C122.488 176.547 126.314 175.562 129.685 173.637C133.057 171.713 135.851 168.92 137.777 165.549C140.405 160.868 141.762 154.528 139.364 146.221C132.959 124.07 103.241 142.243 103.241 142.243C103.241 142.243 108.138 111.455 77.8814 119.985C47.6249 128.515 53.1319 155.404 53.1319 155.404C53.1319 155.404 38.9155 151.577 33.8465 160.329C29.8616 167.165 34.9737 175.809 42.7209 175.91Z" fill="white"/>
<path d="M61.5113 144.067L53.4769 140.943C55.5304 139.507 56.9233 135.386 58.3809 132.248C60.5349 127.646 61.8632 124.314 61.8632 124.314L58.7614 123.108C58.7614 123.108 44.8466 139.672 45.4784 143.93C45.8589 146.508 56.0689 152.123 56.0689 152.123L61.5113 144.067Z" fill="#7F3E3B"/>
<path d="M81.9382 156.804C76.6358 157.797 71.2378 158.185 65.8479 157.96C61.8317 156.27 57.985 154.203 54.3599 151.785C54.378 151.583 54.4068 151.381 54.446 151.182C54.9141 148.833 55.9137 146.623 57.3683 144.72C57.8278 144.114 58.3474 143.556 58.9192 143.054C59.3933 142.623 59.9504 142.294 60.5562 142.085L62.1286 142.659L66.3361 144.203C68.2459 143.039 70.4478 142.442 72.6843 142.482C74.9208 142.523 77.0995 143.2 78.9657 144.433L80.8971 152.503L81.9382 156.804Z" fill="#263238"/>
<path opacity="0.2" d="M81.9382 156.804C76.6358 157.797 71.2378 158.185 65.8479 157.96C61.8317 156.27 57.985 154.203 54.3599 151.785C54.378 151.583 54.4068 151.381 54.446 151.182C54.9141 148.833 55.9137 146.623 57.3683 144.72C57.8278 144.114 58.3474 143.556 58.9192 143.054C59.3933 142.623 59.9504 142.294 60.5562 142.085L62.1286 142.659L66.3361 144.203C68.2459 143.039 70.4478 142.442 72.6843 142.482C74.9208 142.523 77.0995 143.2 78.9657 144.433L80.8971 152.503L81.9382 156.804Z" fill="black"/>
<path d="M57.6266 121.816C57.1687 119.83 56.2124 117.994 54.8479 116.481C54.3022 115.957 55.1207 114.327 56.6142 115.196C58.1337 116.22 59.5738 117.358 60.9222 118.599C62.4659 119.906 63.1839 120.344 64.4188 121.342C64.5656 121.482 64.6561 121.671 64.6733 121.874C64.6905 122.076 64.6332 122.277 64.5122 122.441L62.0207 125.442C61.9976 125.473 61.9684 125.499 61.9348 125.518C61.9012 125.537 61.864 125.549 61.8255 125.553C61.7871 125.557 61.7482 125.553 61.7114 125.541C61.6745 125.53 61.6405 125.51 61.6115 125.485L58.0215 122.455C57.8244 122.29 57.6859 122.066 57.6266 121.816Z" fill="#263238"/>
<path d="M58.1148 121.794H58.0789C58.083 121.775 58.083 121.756 58.0789 121.737C57.9314 121.714 57.7812 121.714 57.6338 121.737C57.5092 121.76 57.3867 121.794 57.2676 121.837C56.9071 121.923 56.5889 122.134 56.3701 122.433C56.3305 122.513 56.3181 122.603 56.335 122.69C56.3519 122.777 56.397 122.856 56.4634 122.914C56.512 122.971 56.573 123.015 56.6415 123.043C56.71 123.072 56.7842 123.084 56.8583 123.08C57.2101 123.029 57.5763 122.598 57.8635 122.261C57.9928 122.089 58.0861 121.945 58.122 121.895C58.1261 121.876 58.1261 121.856 58.122 121.837C58.122 121.837 58.1148 121.809 58.1148 121.794ZM56.8224 122.857C56.7845 122.863 56.7458 122.86 56.7088 122.851C56.6717 122.841 56.6371 122.823 56.607 122.799V122.756C56.573 122.728 56.5495 122.69 56.5403 122.647C56.5312 122.604 56.537 122.559 56.5568 122.519C56.86 122.2 57.2623 121.993 57.6984 121.931H57.7774C57.8129 121.924 57.8495 121.924 57.8851 121.931V121.931C57.8522 121.987 57.8137 122.04 57.7702 122.089C57.483 122.412 57.1096 122.814 56.8224 122.857V122.857Z" fill="#FF9766"/>
<path d="M105.668 142.2C105.668 142.2 111.692 149.703 115.282 149.15C118.872 148.597 126.77 148.432 126.77 148.432L126.425 145.833L117.034 145.316C116.399 145.281 115.785 145.08 115.252 144.733C114.719 144.387 114.287 143.907 113.997 143.341L110.572 136.7L105.668 142.2Z" fill="#7F3E3B"/>
<path d="M113.042 141.137L107.111 145.84L105.28 143.751L101.461 139.392L100.929 138.768L105.998 128.716C108.863 131.76 113.042 141.137 113.042 141.137Z" fill="#FF9766"/>
<path opacity="0.1" d="M113.042 141.137L107.111 145.84L105.28 143.751L101.461 139.392L100.929 138.768L105.998 128.716C108.863 131.76 113.042 141.137 113.042 141.137Z" fill="black"/>
<path opacity="0.2" d="M105.28 143.751L101.46 139.392L103.413 136.743C104.378 138.974 105.007 141.336 105.28 143.751V143.751Z" fill="black"/>
<path d="M54.7189 146.242L45.3849 146.012C47.0004 143.98 47.0004 139.608 47.424 136.154C48.0343 131.128 48.2712 127.538 48.2712 127.538L44.6812 127.445C44.6812 127.445 36.0652 147.764 38.2192 151.555C39.4973 153.86 51.9402 155.698 51.9402 155.698L54.7189 146.242Z" fill="#7F3E3B"/>
<path d="M43.0799 126.576C41.8889 124.834 40.2725 123.425 38.3842 122.484C37.6662 122.175 37.9103 120.33 39.7484 120.674C41.6536 121.13 43.5249 121.718 45.3488 122.433C47.431 123.151 48.2208 123.324 49.9081 123.869C50.1024 123.942 50.2606 124.088 50.3491 124.276C50.4376 124.463 50.4494 124.678 50.3819 124.874L48.8239 128.522C48.8089 128.56 48.7865 128.594 48.7582 128.623C48.7298 128.652 48.696 128.676 48.6586 128.692C48.6213 128.708 48.5811 128.716 48.5405 128.717C48.4998 128.717 48.4595 128.709 48.4218 128.694L43.6974 127.086C43.4401 126.99 43.2225 126.811 43.0799 126.576V126.576Z" fill="#263238"/>
<path d="M42.4554 125.837C42.8292 125.98 43.1876 126.16 43.5253 126.375C43.5427 126.385 43.5568 126.4 43.5657 126.418C43.5747 126.436 43.5781 126.456 43.5755 126.476C43.5725 126.497 43.5634 126.517 43.5495 126.534C43.5355 126.55 43.5172 126.562 43.4965 126.569C43.3314 126.612 41.8667 127.014 41.4143 126.634C41.3612 126.592 41.3209 126.536 41.2981 126.473C41.2752 126.409 41.2707 126.341 41.2851 126.275C41.2816 126.169 41.3089 126.064 41.3637 125.974C41.4185 125.883 41.4985 125.811 41.5938 125.765C41.8802 125.684 42.1864 125.709 42.4554 125.837ZM43.2237 126.411C42.5057 125.987 41.96 125.829 41.6944 125.952C41.6376 125.987 41.5902 126.035 41.5564 126.093C41.5226 126.15 41.5034 126.215 41.5005 126.282C41.4968 126.315 41.5006 126.348 41.5119 126.379C41.5231 126.41 41.5413 126.438 41.5651 126.461C41.8092 126.662 42.6278 126.547 43.2237 126.411Z" fill="#FF9766"/>
<path d="M43.5036 126.368H43.5466C43.5533 126.384 43.5568 126.401 43.5568 126.418C43.5568 126.435 43.5533 126.453 43.5466 126.468C43.5466 126.504 43.202 127.761 42.642 128.027C42.5693 128.062 42.4895 128.081 42.4086 128.081C42.3277 128.081 42.2479 128.062 42.1753 128.027C42.0908 127.996 42.0195 127.937 41.9737 127.86C41.9279 127.782 41.9103 127.692 41.924 127.603C41.9886 127.115 42.922 126.454 43.4246 126.346C43.4384 126.342 43.4531 126.342 43.4671 126.346C43.481 126.35 43.4936 126.358 43.5036 126.368V126.368ZM42.3404 127.804C42.3781 127.823 42.42 127.834 42.4625 127.834C42.5049 127.834 42.5468 127.823 42.5845 127.804C42.922 127.646 43.1948 126.971 43.3025 126.569C42.8286 126.749 42.1968 127.287 42.1394 127.596C42.1394 127.653 42.1394 127.739 42.2758 127.797L42.3404 127.804Z" fill="#FF9766"/>
<path d="M83.6113 156.452C83.0513 156.581 82.4913 156.696 81.9384 156.804C76.6359 157.797 71.2379 158.185 65.848 157.96C60.5286 157.805 55.2376 157.124 50.052 155.928C49.5923 153.531 49.7681 151.056 50.5618 148.748C51.1506 146.931 52.0481 145.409 53.082 144.72H57.39H59.7522C60.0825 144.368 60.4128 144.038 60.7502 143.736C61.2062 143.341 61.6857 142.975 62.1862 142.638C63.7391 141.627 65.4788 140.937 67.3026 140.609C69.1265 140.281 70.9975 140.321 72.8054 140.728L74.1122 142.623L80.9045 152.532L83.6113 156.452Z" fill="#263238"/>
<path d="M94.5679 126.569C92.2195 126.607 89.9017 127.108 87.7478 128.045C85.5939 128.981 83.6464 130.334 82.0172 132.026C80.5166 133.605 79.3175 135.451 77.8743 137.088C76.4312 138.725 74.6577 140.197 72.5252 140.678C71.6421 143.801 72.5252 147.14 74.3131 149.847C76.2123 152.567 78.563 154.941 81.2633 156.869C86.2893 156.991 97.167 148.662 97.167 148.662C102.53 144.742 106.135 139.364 107.176 135.214C107.621 133.433 106.58 130.188 105.323 128.852C104.005 127.559 102.301 126.73 100.47 126.49C98.6604 126.21 96.3988 126.547 94.5679 126.569Z" fill="#FF9766"/>
<path d="M94.2231 130.913C93.1317 129.132 93.9861 127.1 96.0612 127.186C97.2028 127.23 99.2419 125.226 99.5794 124.731C100.102 124.081 100.52 123.354 100.821 122.577C102.624 117.077 108.605 127.208 108.605 127.208C106.321 127.585 104.273 128.836 102.897 130.697C102.438 131.351 102.064 132.06 101.784 132.808C101.647 133.189 103.521 137.116 100.671 137.231C100.181 137.24 99.6952 137.138 99.2502 136.932C98.8052 136.727 98.4121 136.425 98.1003 136.047C96.6889 134.429 95.3933 132.713 94.2231 130.913Z" fill="#7F3E3B"/>
<path opacity="0.2" d="M99.7159 124.882C100.197 124.178 100.569 123.406 100.822 122.591C102.624 117.091 108.605 127.222 108.605 127.222C106.321 127.599 104.273 128.851 102.897 130.712C102.437 131.362 102.066 132.069 101.791 132.816C101.791 132.816 101.073 128.615 100.656 126.203C101.152 125.873 99.3784 125.37 99.7159 124.882Z" fill="black"/>
<path d="M109.136 109.854C114.981 112.252 115.476 120.286 113.94 125.061C112.267 130.382 104.685 132.514 100.262 128.163C97.3251 125.291 97.5477 122.11 97.3898 116.675C97.2318 111.24 103.27 107.441 109.136 109.854Z" fill="#7F3E3B"/>
<path d="M109.308 118.664C109.617 118.707 109.825 119.123 109.768 119.59C109.71 120.057 109.416 120.416 109.107 120.38C108.798 120.344 108.59 119.927 108.648 119.461C108.705 118.994 108.992 118.628 109.308 118.664Z" fill="#263238"/>
<path d="M113.444 119.626C113.753 119.669 113.961 120.085 113.904 120.552C113.846 121.019 113.559 121.378 113.243 121.342C112.927 121.306 112.726 120.89 112.784 120.423C112.841 119.956 113.143 119.59 113.444 119.626Z" fill="#263238"/>
<path d="M109.94 117.407C109.617 117.263 109.263 117.201 108.91 117.226C108.557 117.251 108.215 117.362 107.916 117.551C107.854 117.592 107.779 117.608 107.705 117.596C107.632 117.584 107.566 117.545 107.521 117.486C107.498 117.457 107.482 117.424 107.473 117.389C107.464 117.353 107.462 117.316 107.467 117.28C107.473 117.244 107.485 117.209 107.504 117.178C107.523 117.147 107.548 117.12 107.578 117.099C107.951 116.855 108.378 116.705 108.822 116.661C109.266 116.617 109.713 116.681 110.127 116.847C110.197 116.875 110.253 116.928 110.284 116.997C110.315 117.065 110.318 117.143 110.292 117.213C110.263 117.264 110.221 117.306 110.17 117.336C110.139 117.363 110.103 117.384 110.063 117.397C110.023 117.409 109.982 117.413 109.94 117.407Z" fill="#263238"/>
<path d="M114.162 119.095C114.013 118.774 113.789 118.493 113.509 118.277C113.229 118.061 112.902 117.915 112.554 117.852C112.481 117.843 112.415 117.807 112.368 117.751C112.322 117.695 112.298 117.624 112.302 117.551C112.305 117.514 112.315 117.478 112.332 117.445C112.348 117.412 112.371 117.383 112.399 117.359C112.427 117.335 112.46 117.317 112.495 117.305C112.53 117.294 112.567 117.289 112.604 117.292C113.044 117.362 113.462 117.536 113.821 117.801C114.179 118.066 114.469 118.414 114.664 118.815C114.696 118.882 114.701 118.958 114.678 119.029C114.655 119.099 114.607 119.159 114.542 119.195C114.476 119.213 114.405 119.213 114.339 119.196C114.272 119.178 114.211 119.143 114.162 119.095V119.095Z" fill="#263238"/>
<path d="M111.226 123.841C112.554 123.841 112.475 123.482 112.475 123.482L111.362 120.401L111.226 123.841Z" fill="#D58745"/>
<path opacity="0.4" d="M127.418 157.958L127.405 158.244L128.044 158.272L128.056 157.985L127.418 157.958Z" fill="white"/>
<path opacity="0.4" d="M125.222 157.844L125.21 158.131L125.848 158.158L125.861 157.871L125.222 157.844Z" fill="white"/>
<path d="M111.326 155.088V155.21H112.145C112.402 155.218 112.655 155.14 112.863 154.987L114.464 153.788C114.538 153.734 114.592 153.657 114.62 153.569C114.648 153.482 114.648 153.388 114.619 153.3C114.591 153.213 114.535 153.137 114.461 153.083C114.387 153.029 114.297 152.999 114.205 152.999H113.638C112.628 153.372 111.8 154.12 111.326 155.088Z" fill="white"/>
<path d="M92.3706 145.589L92.6937 152.051L104.11 155.174C104.634 154.528 105.51 153.171 106.264 152.812C107.477 152.259 111.29 152.417 112.073 152.589C112.855 152.762 111.635 156.754 111.304 157.421C110.974 158.089 104.017 157.946 104.017 157.946C104.017 157.946 89.3335 158.197 87.6031 156.309C85.8727 154.42 85.3701 145.984 85.3701 145.984L92.3706 145.589Z" fill="#7F3E3B"/>
<path d="M123.697 145.79L122.728 145.84L123.446 147.994C123.548 148.308 123.737 148.587 123.991 148.798C124.245 149.009 124.554 149.144 124.882 149.186L128.005 149.523C128.464 149.574 128.924 149.441 129.285 149.153C129.645 148.865 129.877 148.445 129.93 147.987L130.037 147.018C128.059 146.086 125.88 145.664 123.697 145.79Z" fill="#7F3E3B"/>
<path d="M109.136 126.038C109.1 126.483 109.301 126.863 109.588 126.885C109.876 126.906 110.141 126.569 110.177 126.131C110.213 125.693 110.012 125.312 109.725 125.284C109.438 125.255 109.186 125.6 109.136 126.038Z" fill="#263238"/>
<path d="M109.136 107.643C107.422 106.531 105.368 106.066 103.342 106.329C101.339 106.601 99.5723 108.181 97.9425 109.366C95.5587 111.103 93.3832 116.546 94.2735 119.339C94.9915 121.493 96.6429 124.695 98.4307 126.131C98.1794 124.415 99.7159 120.854 100.958 119.669C101.511 119.131 102.172 118.714 102.717 118.168C103.011 117.916 103.247 117.603 103.409 117.251C103.571 116.899 103.656 116.517 103.658 116.129C103.658 115.756 103.794 113.53 103.859 113.164C105.331 113.451 106.645 113.487 108.117 113.767C108.636 114.494 109.34 115.069 110.156 115.433C110.488 115.618 110.854 115.735 111.233 115.777C111.423 115.801 111.617 115.775 111.795 115.704C111.973 115.632 112.13 115.517 112.252 115.368C112.382 115.175 112.432 114.939 112.394 114.709C112.355 114.48 112.23 114.274 112.044 114.133C112.626 114.385 112.87 114.93 113.322 115.361C113.774 115.792 114.543 116.079 115.002 115.648C115.138 115.499 115.228 115.315 115.263 115.117C115.297 114.918 115.274 114.714 115.196 114.528C115.035 114.159 114.803 113.825 114.514 113.544C115.06 114.126 115.95 114.614 116.668 114.262C116.909 114.116 117.102 113.902 117.222 113.646C117.342 113.391 117.384 113.106 117.343 112.826C117.241 112.265 116.993 111.74 116.625 111.304C115.752 110.149 114.619 109.216 113.318 108.579C112.017 107.943 110.584 107.622 109.136 107.643V107.643Z" fill="#263238"/>
<path d="M97.533 120.208C97.7917 121.296 98.4705 122.238 99.4214 122.828C100.685 123.596 101.733 122.563 101.705 121.162C101.705 119.899 100.987 117.975 99.5506 117.773C99.2366 117.733 98.9173 117.772 98.6222 117.886C98.3271 118.001 98.0657 118.189 97.8619 118.431C97.6581 118.673 97.5185 118.963 97.4561 119.274C97.3936 119.584 97.4102 119.905 97.5043 120.208H97.533Z" fill="#7F3E3B"/>
<path opacity="0.1" d="M85.2838 130.985C83.5965 133.39 82.2754 141.152 83.216 146.106L93.4546 145.531C93.6054 144.059 93.8926 134.761 93.8639 133.275C93.8352 131.789 93.4762 129.98 92.1479 129.312C89.0892 127.804 85.9013 130.116 85.2838 130.985Z" fill="white"/>
<path d="M139.895 169.979L141.396 164.767C141.108 163.754 140.972 162.613 140.749 161.536C140.685 161.195 140.515 160.884 140.264 160.646C140.012 160.407 139.693 160.254 139.349 160.207C138.735 160.127 138.111 160.201 137.533 160.423C137.319 160.508 137.126 160.636 136.964 160.799C136.802 160.962 136.676 161.156 136.592 161.37C136.015 162.808 135.614 164.31 135.4 165.844C135.271 167.351 136.24 169.182 137.224 170.345C138.13 170.529 139.072 170.4 139.895 169.979V169.979Z" fill="#CE7A63"/>
<path d="M166.181 236.94C166.229 240.861 165.938 244.779 165.312 248.651C165.312 248.651 166.081 256.283 167.466 265.947C167.466 265.947 175.925 272.811 183.262 285.728L180.161 288.916C180.161 288.916 159.841 271.899 158.319 269.753C157.091 268.022 147.614 237.134 147.614 237.134L166.181 236.94Z" fill="#CE7A63"/>
<path d="M153.092 246.087C150.274 248.196 147.072 249.735 143.665 250.618C143.665 250.618 136.319 254.71 128.048 259.909C124.341 267.821 119.846 275.338 114.629 282.346L109.947 280.91C109.947 280.91 117.644 257.525 120.997 253.411C122.34 251.76 126.82 247.502 130.884 243.51C136.966 237.536 145.352 229.207 145.352 229.207L153.092 246.087Z" fill="#CE7A63"/>
<path d="M151.613 197.048C151.613 197.048 145.187 186.134 144.569 184.842C144.368 184.418 139.96 167.998 139.96 167.998L135.652 168.048L138.007 186.314L146.472 206.102C146.472 206.102 155.899 205.477 151.613 197.048Z" fill="#03DAC5"/>
<path opacity="0.1" d="M151.613 197.048C151.613 197.048 145.187 186.134 144.569 184.842C144.368 184.418 139.96 167.998 139.96 167.998L135.652 168.048L138.007 186.314L146.472 206.102C146.472 206.102 155.899 205.477 151.613 197.048Z" fill="black"/>
<path d="M141.949 232.187L166.246 236.76C166.203 229.832 175.917 204.709 170.008 201.485C165.513 199.037 157.256 197.594 151.778 197.012C150.18 196.831 148.572 197.242 147.257 198.169C145.943 199.095 145.015 200.472 144.648 202.038C142.2 213.002 141.949 232.187 141.949 232.187Z" fill="#03DAC5"/>
<path d="M162.943 198.606C163.422 198.816 163.887 199.056 164.336 199.324C162.9 200.882 161.414 202.196 159.375 202.864C157.63 203.409 154.263 203.496 152.827 201.909C152.26 201.259 151.891 200.461 151.763 199.609C151.636 198.756 151.756 197.885 152.109 197.098C153.819 196.764 155.571 196.706 157.3 196.926C159.254 197.2 161.157 197.766 162.943 198.606V198.606Z" fill="#CE7A63"/>
<path d="M153.824 199.626L161.054 200.293L161.586 196L161.794 194.269L161.708 194.262L155.21 193.688L154.549 196.531L153.824 199.626Z" fill="#CE7A63"/>
<path opacity="0.2" d="M154.549 196.531C156.886 197.169 159.371 196.981 161.586 196L161.794 194.269H161.708L155.21 193.695L154.549 196.531Z" fill="black"/>
<path d="M167.768 186.759C165.887 191.483 165.183 193.544 161.952 195.181C157.062 197.701 150.938 194.004 151.376 188.812C151.785 184.153 154.758 177.188 160.135 176.836C163.955 176.556 168.033 179.78 168.285 183.6C168.362 184.679 168.185 185.761 167.768 186.759V186.759Z" fill="#CE7A63"/>
<path d="M159.252 185.546C159.059 185.912 158.714 186.106 158.47 185.984C158.226 185.861 158.19 185.459 158.384 185.093C158.577 184.727 158.915 184.526 159.159 184.655C159.403 184.784 159.439 185.172 159.252 185.546Z" fill="#263238"/>
<path d="M155.088 183.399C154.894 183.765 154.542 183.966 154.313 183.837C154.083 183.707 154.025 183.32 154.219 182.946C154.413 182.573 154.751 182.386 154.995 182.508C155.239 182.63 155.289 183.033 155.088 183.399Z" fill="#263238"/>
<path d="M156.445 184.727C155.688 185.396 154.843 185.956 153.932 186.393C154.05 186.623 154.216 186.825 154.419 186.985C154.622 187.145 154.858 187.259 155.11 187.319L156.445 184.727Z" fill="#BA4D3C"/>
<path d="M161.22 184.892C161.169 184.888 161.121 184.867 161.082 184.834C161.043 184.8 161.016 184.755 161.004 184.705C160.851 184.34 160.624 184.011 160.337 183.738C160.051 183.465 159.711 183.254 159.339 183.119C159.305 183.111 159.274 183.096 159.247 183.075C159.22 183.055 159.198 183.029 159.181 182.999C159.165 182.969 159.155 182.936 159.152 182.902C159.149 182.868 159.153 182.834 159.164 182.802C159.175 182.77 159.193 182.74 159.216 182.715C159.239 182.69 159.267 182.67 159.299 182.657C159.33 182.643 159.364 182.637 159.398 182.637C159.432 182.637 159.466 182.645 159.496 182.659C159.547 182.702 161.105 183.255 161.471 184.576C161.487 184.637 161.478 184.702 161.447 184.757C161.417 184.811 161.366 184.852 161.306 184.871L161.22 184.892Z" fill="#263238"/>
<path d="M154.528 181.273C154.479 181.255 154.437 181.22 154.409 181.176C154.381 181.132 154.368 181.079 154.372 181.027C154.376 180.974 154.397 180.924 154.431 180.885C154.466 180.845 154.512 180.818 154.564 180.807C154.944 180.722 155.339 180.731 155.714 180.833C156.09 180.936 156.434 181.129 156.718 181.396C156.764 181.441 156.789 181.503 156.789 181.568C156.789 181.632 156.764 181.694 156.718 181.74C156.672 181.786 156.61 181.811 156.546 181.811C156.481 181.811 156.419 181.786 156.373 181.74C156.146 181.535 155.873 181.387 155.577 181.31C155.281 181.233 154.97 181.227 154.672 181.295C154.623 181.298 154.574 181.291 154.528 181.273V181.273Z" fill="#263238"/>
<path d="M161.586 174.618C166.727 175.034 171.258 178.976 171.387 182.171C172.241 185.043 172.342 189.179 169.046 190.715C167.237 191.562 164.279 193.946 163.704 194.126C163.13 194.305 165.14 192.323 166.002 190.234C165.183 189.408 165.284 188.181 165.585 186.867C165.829 185.905 164.429 184.82 162.534 183.758C162.722 182.962 163.035 182.201 163.46 181.503C162.689 181.936 161.995 182.494 161.407 183.155C159.755 182.3 157.924 181.489 156.539 180.778C156.804 179.925 157.275 179.151 157.91 178.523C157.91 178.523 156.345 178.007 155.533 180.239C155.068 180.023 154.662 179.698 154.349 179.292C152.934 176.434 156.108 174.172 161.586 174.618Z" fill="#263238"/>
<path d="M167.761 190.988C167.447 191.362 167.064 191.67 166.631 191.896C166.199 192.121 165.726 192.259 165.24 192.302C163.941 192.417 163.532 191.189 164.106 190.098C164.68 189.006 165.901 187.865 167.107 188.267C167.317 188.34 167.509 188.454 167.674 188.602C167.838 188.751 167.972 188.93 168.066 189.131C168.16 189.332 168.214 189.549 168.223 189.77C168.232 189.992 168.197 190.213 168.12 190.421C168.04 190.632 167.918 190.826 167.761 190.988Z" fill="#CE7A63"/>
<path d="M153.853 189.286C155.495 189.37 157.125 189.61 158.721 190.004C158.082 190.981 157.127 191.677 155.311 191.29C155.091 191.265 154.878 191.196 154.684 191.089C154.491 190.982 154.321 190.837 154.183 190.664C154.046 190.49 153.944 190.291 153.883 190.078C153.823 189.865 153.805 189.643 153.831 189.423C153.836 189.377 153.843 189.331 153.853 189.286V189.286Z" fill="#263238"/>
<path d="M156.33 190.629C155.64 190.443 154.909 190.478 154.241 190.73C154.53 191.024 154.904 191.22 155.311 191.29C155.997 191.483 156.728 191.447 157.393 191.189C157.106 190.896 156.734 190.7 156.33 190.629V190.629Z" fill="#9D2724"/>
<path d="M154.018 189.294C154.028 189.431 154.075 189.563 154.153 189.677C154.231 189.791 154.338 189.881 154.463 189.94C155.517 190.153 156.585 190.285 157.658 190.335C157.827 190.352 157.997 190.329 158.155 190.266C158.312 190.204 158.453 190.104 158.563 189.976C157.068 189.63 155.549 189.402 154.018 189.294V189.294Z" fill="white"/>
<path d="M171.222 182.171L172.794 181.453C173.355 181.763 173.774 182.277 173.964 182.889C173.036 182.599 172.059 182.503 171.092 182.609C171.157 182.415 171.042 182.257 171.222 182.171Z" fill="#263238"/>
<path d="M151.498 220.088L142.495 218.164C142.495 218.164 141.683 228.338 141.346 231.282L148.748 233.106L151.498 220.088Z" fill="#263238"/>
<path d="M142.803 232.438L143.105 218.538C143.105 218.538 145.072 209.29 146.745 205.707L163.64 208.629C163.127 210.848 163.149 213.157 163.705 215.365C164.26 217.574 165.333 219.619 166.835 221.331L165.47 236.495C165.47 236.495 150.594 238.074 142.803 232.438Z" fill="#263238"/>
<path d="M168.199 200.494C166.49 201.062 165.571 202.864 164.917 204.537C163.768 207.486 162.908 210.54 162.347 213.655C161.722 214.072 161.055 214.689 160.423 215.091C159.87 214.617 159.317 213.95 158.764 213.476C160.107 207.524 162.225 199.834 164.91 199.288C166.097 199.376 167.236 199.794 168.199 200.494V200.494Z" fill="#263238"/>
<path d="M161.657 223.463L170.396 224.361C170.396 224.361 168.96 234.262 168.392 237.17L160.358 236.696L161.657 223.463Z" fill="#263238"/>
<path d="M141.999 229.76C137.59 234.334 124.767 244.321 124.767 244.321C127.588 249.641 131.947 255.515 137.827 258.049C141.108 256.441 144.066 253.318 147.348 251.709C148.245 255.22 150.098 262.68 150.098 262.68C156.603 261.036 165.125 259.291 171.767 255.436C171.767 255.436 171.228 254.272 170.97 253.655C167.961 246.475 168.687 238.577 169.29 230.801L169.448 229.042C160.322 227.606 145.51 230.478 141.999 229.76Z" fill="#263238"/>
<path d="M108.942 279.302C107.061 279.898 103.528 280.199 101.274 279.489C100.326 279.194 99.1199 281.133 101.145 282.274C103.305 283.343 105.539 284.257 107.829 285.01C110.364 285.979 111.276 286.446 113.272 287.243C113.512 287.329 113.776 287.317 114.007 287.209C114.238 287.102 114.418 286.907 114.507 286.669L115.943 281.987C115.958 281.939 115.964 281.888 115.96 281.838C115.955 281.788 115.941 281.739 115.918 281.694C115.894 281.649 115.862 281.61 115.823 281.577C115.785 281.545 115.74 281.521 115.691 281.506L109.947 279.352C109.628 279.221 109.273 279.204 108.942 279.302V279.302Z" fill="#263238"/>
<path d="M106.917 278.893C106.865 278.775 106.847 278.645 106.866 278.518C106.885 278.391 106.94 278.272 107.025 278.175C107.065 278.103 107.124 278.044 107.194 278.002C107.265 277.961 107.345 277.938 107.427 277.938C108.145 277.938 109.229 279.467 109.351 279.639C109.364 279.661 109.371 279.686 109.371 279.711C109.371 279.736 109.364 279.761 109.351 279.783C109.34 279.804 109.322 279.821 109.3 279.832C109.278 279.842 109.253 279.845 109.229 279.84C108.74 279.78 108.259 279.67 107.793 279.51C107.435 279.419 107.123 279.199 106.917 278.893V278.893ZM107.434 278.218C107.394 278.218 107.354 278.229 107.319 278.249C107.284 278.269 107.254 278.298 107.233 278.333C107.183 278.397 107.151 278.473 107.138 278.553C107.126 278.634 107.134 278.716 107.161 278.792C107.312 279.122 107.973 279.41 108.964 279.56C108.511 278.964 107.822 278.218 107.434 278.218Z" fill="#03DAC5"/>
<path d="M109.136 279.805C108.741 279.309 108.375 277.952 108.698 277.435C108.756 277.341 108.845 277.269 108.95 277.232C109.054 277.196 109.168 277.196 109.273 277.234C109.37 277.253 109.462 277.294 109.542 277.354C109.621 277.414 109.686 277.49 109.732 277.579C110.055 278.297 109.38 279.733 109.359 279.733C109.348 279.75 109.333 279.765 109.316 279.777C109.299 279.788 109.279 279.795 109.258 279.797C109.258 279.797 109.258 279.797 109.215 279.797C109.204 279.805 109.191 279.81 109.177 279.812C109.163 279.813 109.149 279.81 109.136 279.805ZM109.201 277.5C109.021 277.457 108.942 277.5 108.906 277.586C108.772 278.23 108.876 278.902 109.201 279.474C109.477 278.935 109.575 278.321 109.481 277.722C109.46 277.674 109.43 277.63 109.392 277.595C109.353 277.559 109.308 277.531 109.258 277.514L109.201 277.5Z" fill="#03DAC5"/>
<path d="M179.314 290.847C179.515 292.944 179.041 296.721 177.791 298.911C177.274 299.844 179.041 301.51 180.663 299.672C182.286 297.834 184.06 294.782 185.022 293.289C186.601 290.855 187.298 290 188.576 288.09C188.721 287.856 188.769 287.575 188.709 287.306C188.648 287.037 188.484 286.803 188.253 286.654L183.672 284.098C183.625 284.071 183.573 284.054 183.519 284.048C183.465 284.041 183.411 284.046 183.359 284.06C183.307 284.075 183.258 284.1 183.216 284.133C183.173 284.167 183.138 284.209 183.112 284.256L179.522 289.806C179.343 290.122 179.27 290.487 179.314 290.847V290.847Z" fill="#263238"/>
<path d="M178.459 292.879C178.326 292.906 178.187 292.895 178.06 292.847C177.933 292.799 177.822 292.715 177.741 292.606C177.675 292.549 177.625 292.474 177.598 292.391C177.57 292.308 177.565 292.218 177.583 292.133C177.741 291.372 179.586 290.589 179.794 290.496C179.82 290.489 179.848 290.488 179.874 290.495C179.9 290.501 179.925 290.514 179.945 290.531C179.966 290.548 179.981 290.571 179.987 290.597C179.994 290.623 179.992 290.65 179.981 290.675C179.809 291.176 179.585 291.657 179.313 292.111C179.134 292.465 178.83 292.739 178.459 292.879V292.879ZM177.87 292.161C177.863 292.203 177.866 292.246 177.88 292.286C177.894 292.327 177.917 292.363 177.949 292.391C178.004 292.459 178.076 292.512 178.158 292.545C178.24 292.578 178.328 292.589 178.416 292.578C178.789 292.484 179.241 291.86 179.622 290.855C178.89 291.228 177.956 291.781 177.87 292.226V292.161Z" fill="#03DAC5"/>
<path d="M179.916 290.79C179.306 291.099 177.806 291.171 177.332 290.718C177.248 290.635 177.194 290.526 177.18 290.409C177.165 290.292 177.191 290.173 177.253 290.072C177.296 289.975 177.36 289.888 177.441 289.818C177.521 289.749 177.617 289.698 177.719 289.67C178.516 289.49 179.873 290.517 179.924 290.553C179.94 290.567 179.953 290.585 179.962 290.605C179.971 290.625 179.975 290.646 179.974 290.668C179.96 290.671 179.945 290.671 179.931 290.668C179.94 290.688 179.944 290.709 179.941 290.731C179.939 290.753 179.93 290.773 179.916 290.79V290.79ZM177.518 290.208C177.478 290.254 177.456 290.313 177.456 290.374C177.456 290.434 177.478 290.493 177.518 290.539C178.161 290.826 178.887 290.866 179.557 290.654C179.059 290.23 178.437 289.978 177.784 289.936C177.73 289.947 177.68 289.97 177.635 290.002C177.591 290.034 177.554 290.075 177.525 290.122L177.518 290.208Z" fill="#03DAC5"/>
<path d="M190.004 236.66L193.802 240.544C194.025 241.571 194.441 242.641 194.757 243.696C194.86 244.026 194.857 244.38 194.749 244.708C194.641 245.037 194.433 245.323 194.154 245.527C193.651 245.887 193.066 246.117 192.453 246.195C192.224 246.223 191.993 246.203 191.773 246.136C191.553 246.069 191.349 245.957 191.175 245.807C189.987 244.812 188.921 243.679 188.001 242.433C187.175 241.169 187.168 239.087 187.484 237.601C188.192 237.008 189.081 236.677 190.004 236.66V236.66Z" fill="#CE7A63"/>
<path d="M168.364 213.741C168.364 213.741 177.346 222.681 178.272 223.793C178.574 224.145 186.996 238.922 186.996 238.922L191.139 237.787L184.239 220.706L171.645 203.122C171.645 203.122 160.832 202.584 168.364 213.741Z" fill="#03DAC5"/>
<path d="M152.876 196.969C150.263 198.972 149.394 208.414 149.394 211.573C148.848 212.097 148.525 212.751 147.958 213.275C147.326 212.909 146.673 212.348 146.041 211.975C146.759 206.547 146.486 201.736 149.631 196.804C149.825 196.825 152.151 196.933 152.876 196.969Z" fill="#263238"/>
<path opacity="0.2" d="M145.352 225.531L147.779 227.886C148.102 228.199 148.495 228.432 148.926 228.566C149.356 228.699 149.812 228.729 150.256 228.654L155.339 227.807C155.957 227.704 156.524 227.402 156.955 226.947C157.385 226.493 157.655 225.909 157.723 225.287L158.254 220.491L158.046 220.448L157.895 221.244L150.565 221.144L145.754 218.99L146.005 217.97L144.612 222.616C144.454 223.123 144.44 223.663 144.57 224.178C144.701 224.693 144.971 225.161 145.352 225.531Z" fill="white"/>
<path opacity="0.3" d="M145.747 219.011L150.564 221.165L157.895 221.244L158.046 220.447L158.462 218.337L146.536 215.788L145.998 217.992L145.747 219.011Z" fill="white"/>
<path opacity="0.2" d="M147.384 251.738L145.488 242.971L137.863 258.078L147.384 251.738Z" fill="black"/>
</svg>
